<svg width="569" height="594" viewBox="0 0 569 594" fill="none" xmlns="http://www.w3.org/2000/svg">
<path d="M357.652 371.642L345.13 338.221H215.744L203.223 371.642H357.652ZM281.272 232.946L330.522 349.083L333.861 356.602L377.268 459.371H416.919L281.272 152.319L145.625 459.371H185.276L227.848 359.109L231.187 350.754L281.272 232.946Z" fill="white"/>
<path d="M281.207 137.403L277.946 118.343L259.816 125.132L259.294 124.218L274.163 111.816L259.294 99.5439L259.816 98.6301L277.946 105.288L281.207 86.2279H282.25L285.511 105.288L303.641 98.6301L304.162 99.5439L289.293 111.816L304.162 124.218L303.641 125.132L285.511 118.343L282.25 137.403H281.207Z" fill="white"/>
</svg>
