<svg width="500" height="140" viewBox="0 0 500 140" fill="none" xmlns="http://www.w3.org/2000/svg">
<g clip-path="url(#clip0_3_2)">
<path d="M71.48 33.2L69.48 21.52L58.36 25.68L58.04 25.12L67.16 17.52L58.04 10L58.36 9.44L69.48 13.52L71.48 1.84H72.12L74.12 13.52L85.24 9.44L85.56 10L76.44 17.52L85.56 25.12L85.24 25.68L74.12 21.52L72.12 33.2H71.48Z" fill="black"/>
<path d="M48.144 116.648L50.32 102.184H93.328L95.504 116.648H48.144ZM71.568 76.456L58.128 107.304L58.512 111.4L46.736 137H26.128L71.568 42.152L117.008 137H96.272L84.752 112.168L85.008 107.56L71.568 76.456ZM141.448 78.12V137H125.192V78.12H141.448ZM158.728 95.4C157.619 94.376 156.467 93.608 155.272 93.096C154.163 92.4987 152.755 92.2 151.048 92.2C149 92.2 147.251 92.7547 145.8 93.864C144.349 94.9733 143.24 96.552 142.472 98.6C141.789 100.563 141.448 102.952 141.448 105.768L136.84 101.16C136.84 96.4667 137.736 92.328 139.528 88.744C141.32 85.0747 143.667 82.1733 146.568 80.04C149.469 77.8213 152.456 76.712 155.528 76.712C157.661 76.712 159.667 77.096 161.544 77.864C163.507 78.632 165.085 79.784 166.28 81.32L158.728 95.4ZM185.736 107.56C185.736 110.973 186.504 113.96 188.04 116.52C189.576 119.08 191.624 121.085 194.184 122.536C196.829 123.987 199.731 124.712 202.888 124.712C205.448 124.712 207.923 124.328 210.312 123.56C212.701 122.707 214.835 121.597 216.712 120.232C218.675 118.781 220.168 117.117 221.192 115.24V132.264C219.144 134.141 216.456 135.635 213.128 136.744C209.885 137.768 206.088 138.28 201.736 138.28C195.507 138.28 189.875 137 184.84 134.44C179.891 131.88 175.965 128.296 173.064 123.688C170.248 118.995 168.84 113.619 168.84 107.56C168.84 101.416 170.248 96.04 173.064 91.432C175.965 86.824 179.891 83.24 184.84 80.68C189.875 78.12 195.507 76.84 201.736 76.84C206.088 76.84 209.885 77.3947 213.128 78.504C216.456 79.528 219.144 80.936 221.192 82.728V99.752C220.168 97.8747 218.632 96.2533 216.584 94.888C214.621 93.4373 212.445 92.328 210.056 91.56C207.667 90.792 205.277 90.408 202.888 90.408C199.731 90.408 196.829 91.176 194.184 92.712C191.624 94.1627 189.576 96.168 188.04 98.728C186.504 101.288 185.736 104.232 185.736 107.56ZM247.593 118.696C247.593 120.403 248.02 121.896 248.873 123.176C249.726 124.371 250.878 125.309 252.329 125.992C253.865 126.589 255.529 126.888 257.321 126.888C259.881 126.888 262.185 126.376 264.233 125.352C266.281 124.243 267.945 122.707 269.225 120.744C270.505 118.696 271.145 116.264 271.145 113.448L273.193 121.128C273.193 124.883 272.126 128.04 269.993 130.6C267.945 133.16 265.257 135.08 261.929 136.36C258.686 137.64 255.273 138.28 251.689 138.28C248.02 138.28 244.606 137.555 241.449 136.104C238.292 134.653 235.732 132.563 233.769 129.832C231.892 127.016 230.953 123.603 230.953 119.592C230.953 113.875 232.958 109.352 236.969 106.024C240.98 102.696 246.654 101.032 253.993 101.032C257.748 101.032 261.033 101.416 263.849 102.184C266.75 102.952 269.182 103.891 271.145 105C273.108 106.109 274.516 107.176 275.369 108.2V115.88C273.065 114.173 270.462 112.893 267.561 112.04C264.745 111.187 261.758 110.76 258.601 110.76C256.041 110.76 253.95 111.101 252.329 111.784C250.708 112.381 249.513 113.277 248.745 114.472C247.977 115.581 247.593 116.989 247.593 118.696ZM241.193 94.76L235.049 83.496C238.121 81.8747 241.876 80.3387 246.313 78.888C250.75 77.352 255.7 76.584 261.161 76.584C266.196 76.584 270.676 77.3093 274.601 78.76C278.526 80.2107 281.598 82.344 283.817 85.16C286.036 87.8907 287.145 91.2613 287.145 95.272V137H271.145V98.728C271.145 97.1067 270.889 95.7413 270.377 94.632C269.865 93.4373 269.054 92.456 267.945 91.688C266.921 90.92 265.684 90.3653 264.233 90.024C262.782 89.6827 261.161 89.512 259.369 89.512C256.638 89.512 254.036 89.8107 251.561 90.408C249.086 91.0053 246.953 91.7307 245.161 92.584C243.369 93.4373 242.046 94.1627 241.193 94.76ZM346.983 37.16H363.623V137H346.983V37.16ZM298.599 107.56C298.599 100.989 299.922 95.4427 302.567 90.92C305.212 86.312 308.711 82.8133 313.063 80.424C317.415 78.0347 322.023 76.84 326.887 76.84C331.836 76.84 336.188 78.0773 339.943 80.552C343.783 83.0267 346.77 86.568 348.903 91.176C351.122 95.6987 352.231 101.16 352.231 107.56C352.231 113.875 351.122 119.336 348.903 123.944C346.77 128.552 343.783 132.093 339.943 134.568C336.188 137.043 331.836 138.28 326.887 138.28C322.023 138.28 317.415 137.085 313.063 134.696C308.711 132.307 305.212 128.808 302.567 124.2C299.922 119.592 298.599 114.045 298.599 107.56ZM315.751 107.56C315.751 111.059 316.476 114.088 317.927 116.648C319.378 119.208 321.34 121.171 323.815 122.536C326.29 123.901 328.935 124.584 331.751 124.584C334.226 124.584 336.615 123.944 338.919 122.664C341.308 121.299 343.228 119.336 344.679 116.776C346.215 114.216 346.983 111.144 346.983 107.56C346.983 103.976 346.215 100.904 344.679 98.344C343.228 95.784 341.308 93.864 338.919 92.584C336.615 91.2187 334.226 90.536 331.751 90.536C328.935 90.536 326.29 91.2187 323.815 92.584C321.34 93.9493 319.378 95.912 317.927 98.472C316.476 101.032 315.751 104.061 315.751 107.56ZM378.799 55.336C378.799 52.6053 379.78 50.3867 381.743 48.68C383.706 46.888 386.052 45.992 388.783 45.992C391.514 45.992 393.818 46.888 395.695 48.68C397.658 50.3867 398.639 52.6053 398.639 55.336C398.639 57.9813 397.658 60.2 395.695 61.992C393.818 63.784 391.514 64.68 388.783 64.68C386.052 64.68 383.706 63.784 381.743 61.992C379.78 60.2 378.799 57.9813 378.799 55.336ZM380.591 78.12H396.719V137H380.591V78.12ZM426.093 118.696C426.093 120.403 426.52 121.896 427.373 123.176C428.226 124.371 429.378 125.309 430.829 125.992C432.365 126.589 434.029 126.888 435.821 126.888C438.381 126.888 440.685 126.376 442.733 125.352C444.781 124.243 446.445 122.707 447.725 120.744C449.005 118.696 449.645 116.264 449.645 113.448L451.693 121.128C451.693 124.883 450.626 128.04 448.493 130.6C446.445 133.16 443.757 135.08 440.429 136.36C437.186 137.64 433.773 138.28 430.189 138.28C426.52 138.28 423.106 137.555 419.949 136.104C416.792 134.653 414.232 132.563 412.269 129.832C410.392 127.016 409.453 123.603 409.453 119.592C409.453 113.875 411.458 109.352 415.469 106.024C419.48 102.696 425.154 101.032 432.493 101.032C436.248 101.032 439.533 101.416 442.349 102.184C445.25 102.952 447.682 103.891 449.645 105C451.608 106.109 453.016 107.176 453.869 108.2V115.88C451.565 114.173 448.962 112.893 446.061 112.04C443.245 111.187 440.258 110.76 437.101 110.76C434.541 110.76 432.45 111.101 430.829 111.784C429.208 112.381 428.013 113.277 427.245 114.472C426.477 115.581 426.093 116.989 426.093 118.696ZM419.693 94.76L413.549 83.496C416.621 81.8747 420.376 80.3387 424.813 78.888C429.25 77.352 434.2 76.584 439.661 76.584C444.696 76.584 449.176 77.3093 453.101 78.76C457.026 80.2107 460.098 82.344 462.317 85.16C464.536 87.8907 465.645 91.2613 465.645 95.272V137H449.645V98.728C449.645 97.1067 449.389 95.7413 448.877 94.632C448.365 93.4373 447.554 92.456 446.445 91.688C445.421 90.92 444.184 90.3653 442.733 90.024C441.282 89.6827 439.661 89.512 437.869 89.512C435.138 89.512 432.536 89.8107 430.061 90.408C427.586 91.0053 425.453 91.7307 423.661 92.584C421.869 93.4373 420.546 94.1627 419.693 94.76Z" fill="black"/>
</g>
<defs>
<clipPath id="clip0_3_2">
<rect width="500" height="140" fill="white"/>
</clipPath>
</defs>
</svg>
